<?xml version="1.0" encoding="utf-8"?>
<!-- Generator: Adobe Illustrator 24.2.0, SVG Export Plug-In . SVG Version: 6.00 Build 0)  -->
<svg version="1.1" id="Layer_1" xmlns="http://www.w3.org/2000/svg" xmlns:xlink="http://www.w3.org/1999/xlink" x="0px" y="0px"
	 viewBox="0 0 332.89 106.34" style="enable-background:new 0 0 332.89 106.34;" xml:space="preserve">
<style type="text/css">
	.st0{fill:#000000;}
</style>
<g>
	<g>
		<path class="st0" d="M28.18,30.43c2.05,0,3.84,0.07,5.42,0.32c2.26,0.35,4.17,3.14,4.17,4.5c0,0.7,0,1.47-0.34,2.6
			c-0.56,1.73-4.38,7.94-5.98,10.28c-1.92-2.76-6.43-10.54-7.99-13.58c-0.68-1.27-1.02-2.33-1.02-2.85
			C22.44,30.75,24.58,30.43,28.18,30.43 M2.61,30.43c1.91,0.42,3.03,0.77,4.6,3.27c5.53,9,11.07,18.92,16.46,28.68
			c0.68,0.5,1.47,0.62,2.62,0.62c1.11,0,1.89-0.11,2.6-0.62c2.57-4.3,9.34-15.83,12.26-20.3c3.4,5.54,9.25,15.63,11.62,20.3
			c0.66,0.5,1.47,0.62,2.58,0.62c1.13,0,1.94-0.11,2.59-0.62c4.74-9.15,9.91-18.66,15.12-27.49c1.81-3.18,2.59-4.04,6.31-4.65
			l1.58-0.25c0.9-0.8,0.67-2.68-0.33-3.04c-2.48,0.18-5.41,0.27-8.7,0.27c-2.82,0-5.5-0.09-9.24-0.27
			c-1.13,0.36-1.13,2.42-0.44,3.04l1.9,0.32c1.94,0.35,2.83,0.79,2.83,1.23c0,0.6-0.34,1.81-1.04,3.35c-1.78,4-3.55,8.24-6.29,13.24
			c-2.47-4.16-5.62-9.76-7.66-13.92c-0.67-1.46-0.89-1.99-0.89-2.67c0-0.44,1.56-0.87,4.17-1.31l1.68-0.25
			c0.82-0.35,0.9-2.94-0.33-3.04c-7.21,0.18-12.85,0.27-19.95,0.27H13.87c-4.73,0-8.33-0.09-12.95-0.27
			c-1.15,0.44-1.15,2.34-0.37,3.04L2.61,30.43z"/>
		<path class="st0" d="M96.86,29.99c3.82,0,5.97,1.89,5.97,4.75c0,0.87-0.23,1.74-0.78,1.99c-1.26,0.61-3.06,0.77-4.64,0.77h-4.17
			c-3.62,0-5.19-0.06-5.19-1.29C88.06,33.43,92.12,29.99,96.86,29.99 M96.74,63c6.76,0,15.13-2.51,19.74-9.85
			c0-1.47-1.71-2.17-2.94-2.01c-3.05,4-7.34,4.5-10.49,4.5c-10.48,0-15.9-6.29-15.9-12.78c0-1.38,0.24-1.55,2.84-1.55h21.62
			c3.52,0,4.07-1.21,4.07-2.85c0-6.66-6.32-12.45-18.05-12.45c-14.07,0-24.33,8.48-24.33,19.37C73.3,54.79,81.53,63,96.74,63"/>
		<path class="st0" d="M144.63,30.43c2.06,0,3.85,0.07,5.43,0.32c2.26,0.35,4.17,3.14,4.17,4.5c0,0.7,0,1.47-0.33,2.6
			c-0.58,1.73-4.4,7.94-5.97,10.28c-1.94-2.76-6.43-10.54-8.01-13.58c-0.67-1.27-1.02-2.33-1.02-2.85
			C138.9,30.75,141.03,30.43,144.63,30.43 M119.05,30.43c1.93,0.42,3.04,0.77,4.62,3.27c5.51,9,11.07,18.92,16.46,28.68
			c0.69,0.5,1.47,0.62,2.6,0.62c1.12,0,1.89-0.11,2.59-0.62c2.6-4.3,9.35-15.83,12.3-20.3c3.39,5.54,9.23,15.63,11.6,20.3
			c0.68,0.5,1.46,0.62,2.58,0.62c1.14,0,1.93-0.11,2.6-0.62c4.74-9.15,9.93-18.66,15.12-27.49c1.8-3.18,2.58-4.04,6.3-4.65
			l1.59-0.25c0.89-0.8,0.65-2.68-0.35-3.04c-2.49,0.18-5.41,0.27-8.69,0.27c-2.83,0-5.51-0.09-9.24-0.27
			c-1.14,0.36-1.14,2.42-0.45,3.04l1.91,0.32c1.92,0.35,2.82,0.79,2.82,1.23c0,0.6-0.34,1.81-1.01,3.35
			c-1.81,4-3.62,8.24-6.33,13.24c-2.47-4.16-5.62-9.76-7.65-13.92c-0.68-1.46-0.91-1.99-0.91-2.67c0-0.44,1.57-0.87,4.17-1.31
			l1.68-0.25c0.8-0.35,0.91-2.94-0.33-3.04c-7.21,0.18-12.86,0.27-19.95,0.27h-22.77c-4.71,0-8.33-0.09-12.95-0.27
			c-1.12,0.44-1.12,2.34-0.33,3.04L119.05,30.43z"/>
		<path class="st0" d="M215.58,29.99c6.4,0,9.56,7.25,9.69,15.64c0.1,7.78-2.06,13.4-8.49,13.4c-6.51,0-10.25-6.67-10.25-15.73
			C206.53,33.89,210.61,29.99,215.58,29.99 M215.58,63c13.85,0,25.92-5.96,25.92-18.59c0-12.18-11.97-18.4-25.26-18.4
			c-13.31,0-26.05,6.82-25.94,19.19C190.43,57.11,202.14,63,215.58,63"/>
		<path class="st0" d="M260.71,33.43c0.69,0,1.69,0.09,4.27,1.73c1.45,1.05,2.8,1.57,4.39,1.57c3.6,0,7.23-1.64,7.23-5.62
			c0-3.27-3.16-5.1-6.22-5.1c-4.72,0-7.98,2.85-11.04,4.31c-0.89-0.16-1.12-0.42-1.12-1.03c0-0.77,0.23-1.97,0.44-3.72
			c-0.44-0.51-1.13-0.79-2-0.79c-3.51,1.75-11.28,4.07-16.49,5.21c-0.78,0.5-0.78,2.07,0,2.59l1.61,0.78
			c2.13,1.04,2.13,2.07,2.13,5.54v13.04c0,6.05-0.45,6.82-4.18,7.09l-2.15,0.16c-0.91,0.52-0.91,2.52,0.12,3.04
			c3.73-0.19,8.69-0.26,13.31-0.26c5.29,0,9.81,0.08,15.23,0.26c1.01-0.52,1.01-2.52,0.1-3.04l-3.6-0.24
			c-3.72-0.27-4.18-0.97-4.18-7.01V38.63C258.55,35.35,259.12,33.43,260.71,33.43"/>
		<path class="st0" d="M304.83,58.76l-1.46,0.27c-0.91,0.78-0.69,2.58,0.44,3.01c3.16-0.17,7.2-0.25,13.88-0.25
			c6.54,0,10.7,0.08,14.18,0.25c1.14-0.33,1.36-2.41,0.45-3.01l-1.67-0.27c-2.93-0.43-5.07-0.87-6.65-1.98
			c-2.83-1.98-12.76-13.75-14.75-16.51c-0.58-0.69-0.82-1.2-0.82-1.47c0-0.25,0.12-0.6,0.67-1.13c1.58-1.2,3.31-2.51,7.57-5.02
			c3.03-1.8,5.42-2.66,7.56-3.01l3.59-0.61c0.81-0.67,0.7-2.6-0.45-3.02c-6.64,0.78-16,1.21-21.31,1.21h-2.69
			c-1.12,0.36-1.25,2.25-0.24,3.02l2.83,0.36c1,0.07,2.13,0.41,2.13,0.85c0,0.52-0.55,1.47-2.7,3.44l-4.72,4.26
			c-2.27,1.98-4.63,2.41-6.55,2.41c-1.23,0-1.59-0.26-1.59-1.21V13.23c0-5.45,0.14-9.09,0.36-12.62c-0.44-0.44-1.25-0.6-1.93-0.6
			c-5.76,1.88-12.62,3.98-17.24,4.82c-0.8,0.53-0.8,2.09,0,2.58l1.91,0.89c2.25,1.04,2.25,1.99,2.25,5.46v38
			c0,6.04-0.45,6.74-4.53,7.1l-2.14,0.17c-0.89,0.51-0.89,2.5,0.11,3.01c3.95-0.17,8.57-0.25,13.76-0.25
			c5.19,0,9.92,0.08,13.55,0.25c1-0.51,1-2.5,0.1-3.01l-1.79-0.17c-3.96-0.36-4.42-1.05-4.42-7.1v-5c0-1.65,0.57-2.07,1.35-2.07
			c1.13,0,2.04,0.35,2.84,1.27l7.99,9.35c0.91,1.03,1.91,2.41,1.91,2.78C306.62,58.41,305.96,58.57,304.83,58.76"/>
		<path class="st0" d="M28.18,30.43c2.05,0,3.84,0.07,5.42,0.32c2.26,0.35,4.17,3.14,4.17,4.5c0,0.7,0,1.47-0.34,2.6
			c-0.56,1.73-4.38,7.94-5.98,10.28c-1.92-2.76-6.43-10.54-7.99-13.58c-0.68-1.27-1.02-2.33-1.02-2.85
			C22.44,30.75,24.58,30.43,28.18,30.43 M2.61,30.43c1.91,0.42,3.03,0.77,4.6,3.27c5.53,9,11.07,18.92,16.46,28.68
			c0.68,0.5,1.47,0.62,2.62,0.62c1.11,0,1.89-0.11,2.6-0.62c2.57-4.3,9.34-15.83,12.26-20.3c3.4,5.54,9.25,15.63,11.62,20.3
			c0.66,0.5,1.47,0.62,2.58,0.62c1.13,0,1.94-0.11,2.59-0.62c4.74-9.15,9.91-18.66,15.12-27.49c1.81-3.18,2.59-4.04,6.31-4.65
			l1.58-0.25c0.9-0.8,0.67-2.68-0.33-3.04c-2.48,0.18-5.41,0.27-8.7,0.27c-2.82,0-5.5-0.09-9.24-0.27
			c-1.13,0.36-1.13,2.42-0.44,3.04l1.9,0.32c1.94,0.35,2.83,0.79,2.83,1.23c0,0.6-0.34,1.81-1.04,3.35c-1.78,4-3.55,8.24-6.29,13.24
			c-2.47-4.16-5.62-9.76-7.66-13.92c-0.67-1.46-0.89-1.99-0.89-2.67c0-0.44,1.56-0.87,4.17-1.31l1.68-0.25
			c0.82-0.35,0.9-2.94-0.33-3.04c-7.21,0.18-12.85,0.27-19.95,0.27H13.87c-4.73,0-8.33-0.09-12.95-0.27
			c-1.15,0.44-1.15,2.34-0.37,3.04L2.61,30.43z"/>
		<path class="st0" d="M96.86,29.99c3.82,0,5.97,1.89,5.97,4.75c0,0.87-0.23,1.74-0.78,1.99c-1.26,0.61-3.06,0.77-4.64,0.77h-4.17
			c-3.62,0-5.19-0.06-5.19-1.29C88.06,33.43,92.12,29.99,96.86,29.99 M96.74,63c6.76,0,15.13-2.51,19.74-9.85
			c0-1.47-1.71-2.17-2.94-2.01c-3.05,4-7.34,4.5-10.49,4.5c-10.48,0-15.9-6.29-15.9-12.78c0-1.38,0.24-1.55,2.84-1.55h21.62
			c3.52,0,4.07-1.21,4.07-2.85c0-6.66-6.32-12.45-18.05-12.45c-14.07,0-24.33,8.48-24.33,19.37C73.3,54.79,81.53,63,96.74,63"/>
		<path class="st0" d="M144.63,30.43c2.06,0,3.85,0.07,5.43,0.32c2.26,0.35,4.17,3.14,4.17,4.5c0,0.7,0,1.47-0.33,2.6
			c-0.58,1.73-4.4,7.94-5.97,10.28c-1.94-2.76-6.43-10.54-8.01-13.58c-0.67-1.27-1.02-2.33-1.02-2.85
			C138.9,30.75,141.03,30.43,144.63,30.43 M119.05,30.43c1.93,0.42,3.04,0.77,4.62,3.27c5.51,9,11.07,18.92,16.46,28.68
			c0.69,0.5,1.47,0.62,2.6,0.62c1.12,0,1.89-0.11,2.59-0.62c2.6-4.3,9.35-15.83,12.3-20.3c3.39,5.54,9.23,15.63,11.6,20.3
			c0.68,0.5,1.46,0.62,2.58,0.62c1.14,0,1.93-0.11,2.6-0.62c4.74-9.15,9.93-18.66,15.12-27.49c1.8-3.18,2.58-4.04,6.3-4.65
			l1.59-0.25c0.89-0.8,0.65-2.68-0.35-3.04c-2.49,0.18-5.41,0.27-8.69,0.27c-2.83,0-5.51-0.09-9.24-0.27
			c-1.14,0.36-1.14,2.42-0.45,3.04l1.91,0.32c1.92,0.35,2.82,0.79,2.82,1.23c0,0.6-0.34,1.81-1.01,3.35
			c-1.81,4-3.62,8.24-6.33,13.24c-2.47-4.16-5.62-9.76-7.65-13.92c-0.68-1.46-0.91-1.99-0.91-2.67c0-0.44,1.57-0.87,4.17-1.31
			l1.68-0.25c0.8-0.35,0.91-2.94-0.33-3.04c-7.21,0.18-12.86,0.27-19.95,0.27h-22.77c-4.71,0-8.33-0.09-12.95-0.27
			c-1.12,0.44-1.12,2.34-0.33,3.04L119.05,30.43z"/>
		<path class="st0" d="M215.58,29.99c6.4,0,9.56,7.25,9.69,15.64c0.1,7.78-2.06,13.4-8.49,13.4c-6.51,0-10.25-6.67-10.25-15.73
			C206.53,33.89,210.61,29.99,215.58,29.99 M215.58,63c13.85,0,25.92-5.96,25.92-18.59c0-12.18-11.97-18.4-25.26-18.4
			c-13.31,0-26.05,6.82-25.94,19.19C190.43,57.11,202.14,63,215.58,63"/>
		<path class="st0" d="M260.71,33.43c0.69,0,1.69,0.09,4.27,1.73c1.45,1.05,2.8,1.57,4.39,1.57c3.6,0,7.23-1.64,7.23-5.62
			c0-3.27-3.16-5.1-6.22-5.1c-4.72,0-7.98,2.85-11.04,4.31c-0.89-0.16-1.12-0.42-1.12-1.03c0-0.77,0.23-1.97,0.44-3.72
			c-0.44-0.51-1.13-0.79-2-0.79c-3.51,1.75-11.28,4.07-16.49,5.21c-0.78,0.5-0.78,2.07,0,2.59l1.61,0.78
			c2.13,1.04,2.13,2.07,2.13,5.54v13.04c0,6.05-0.45,6.82-4.18,7.09l-2.15,0.16c-0.91,0.52-0.91,2.52,0.12,3.04
			c3.73-0.19,8.69-0.26,13.31-0.26c5.29,0,9.81,0.08,15.23,0.26c1.01-0.52,1.01-2.52,0.1-3.04l-3.6-0.24
			c-3.72-0.27-4.18-0.97-4.18-7.01V38.63C258.55,35.35,259.12,33.43,260.71,33.43"/>
		<path class="st0" d="M304.83,58.76l-1.46,0.27c-0.91,0.78-0.69,2.58,0.44,3.01c3.16-0.17,7.2-0.25,13.88-0.25
			c6.54,0,10.7,0.08,14.18,0.25c1.14-0.33,1.36-2.41,0.45-3.01l-1.67-0.27c-2.93-0.43-5.07-0.87-6.65-1.98
			c-2.83-1.98-12.76-13.75-14.75-16.51c-0.58-0.69-0.82-1.2-0.82-1.47c0-0.25,0.12-0.6,0.67-1.13c1.58-1.2,3.31-2.51,7.57-5.02
			c3.03-1.8,5.42-2.66,7.56-3.01l3.59-0.61c0.81-0.67,0.7-2.6-0.45-3.02c-6.64,0.78-16,1.21-21.31,1.21h-2.69
			c-1.12,0.36-1.25,2.25-0.24,3.02l2.83,0.36c1,0.07,2.13,0.41,2.13,0.85c0,0.52-0.55,1.47-2.7,3.44l-4.72,4.26
			c-2.27,1.98-4.63,2.41-6.55,2.41c-1.23,0-1.59-0.26-1.59-1.21V13.23c0-5.45,0.14-9.09,0.36-12.62c-0.44-0.44-1.25-0.6-1.93-0.6
			c-5.76,1.88-12.62,3.98-17.24,4.82c-0.8,0.53-0.8,2.09,0,2.58l1.91,0.89c2.25,1.04,2.25,1.99,2.25,5.46v38
			c0,6.04-0.45,6.74-4.53,7.1l-2.14,0.17c-0.89,0.51-0.89,2.5,0.11,3.01c3.95-0.17,8.57-0.25,13.76-0.25
			c5.19,0,9.92,0.08,13.55,0.25c1-0.51,1-2.5,0.1-3.01l-1.79-0.17c-3.96-0.36-4.42-1.05-4.42-7.1v-5c0-1.65,0.57-2.07,1.35-2.07
			c1.13,0,2.04,0.35,2.84,1.27l7.99,9.35c0.91,1.03,1.91,2.41,1.91,2.78C306.62,58.41,305.96,58.57,304.83,58.76"/>
	</g>
	<g>
		<path class="st0" d="M111.48,84h3.47v14.92c0,2.52-0.63,4.39-1.89,5.62c-1.26,1.2-2.87,1.8-4.86,1.8c-1.89,0-3.44-0.54-4.61-1.64
			c-1.17-1.1-1.9-2.49-2.15-4.16l3.5-0.73c0.38,2.05,1.51,3.25,3.25,3.25c2.15,0,3.28-1.1,3.28-3.97V84z"/>
		<path class="st0" d="M136.81,88.39l2.9,8.93h-5.81L136.81,88.39z M135.17,84l-7.67,22.09h3.53l1.83-5.49h7.89l1.83,5.49h3.53
			L138.45,84H135.17z"/>
		<path class="st0" d="M193.25,88.39l2.9,8.93h-5.81L193.25,88.39z M191.6,84l-7.66,22.09h3.53l1.83-5.49h7.89l1.83,5.49h3.53
			L194.89,84H191.6z"/>
		<polygon class="st0" points="227.97,84 227.97,99.9 218.92,84 215.19,84 215.19,106.09 218.66,106.09 218.66,90.25 227.72,106.09 
			231.44,106.09 231.44,84 		"/>
		<path class="st0" d="M111.48,84h3.47v14.92c0,2.52-0.63,4.39-1.89,5.62c-1.26,1.2-2.87,1.8-4.86,1.8c-1.89,0-3.44-0.54-4.61-1.64
			c-1.17-1.1-1.9-2.49-2.15-4.16l3.5-0.73c0.38,2.05,1.51,3.25,3.25,3.25c2.15,0,3.28-1.1,3.28-3.97V84z"/>
		<path class="st0" d="M136.81,88.39l2.9,8.93h-5.81L136.81,88.39z M135.17,84l-7.67,22.09h3.53l1.83-5.49h7.89l1.83,5.49h3.53
			L138.45,84H135.17z"/>
		<path class="st0" d="M167.63,93.78c1.99,0,3.15-1.2,3.15-3.25c0-2.05-1.17-3.25-3.15-3.25h-4.61v6.5H167.63z M163.02,97.06v9.02
			h-3.47V84h7.92c2.15,0,3.82,0.6,5.02,1.83c1.23,1.23,1.83,2.78,1.83,4.7c0,1.92-0.6,3.47-1.83,4.7c-1.2,1.23-2.87,1.83-5.02,1.83
			H163.02z"/>
		<path class="st0" d="M193.25,88.39l2.9,8.93h-5.81L193.25,88.39z M191.6,84l-7.66,22.09h3.53l1.83-5.49h7.89l1.83,5.49h3.53
			L194.89,84H191.6z"/>
		<polygon class="st0" points="227.97,84 227.97,99.9 218.92,84 215.19,84 215.19,106.09 218.66,106.09 218.66,90.25 227.72,106.09 
			231.44,106.09 231.44,84 		"/>
	</g>
</g>
</svg>
